<svg xmlns="http://www.w3.org/2000/svg" viewBox="0 0 100 100">
  <defs>
    <linearGradient id="g" x1="0%" y1="0%" x2="100%" y2="100%">
      <stop offset="0%" stop-color="#f97316"/>
      <stop offset="50%" stop-color="#a855f7"/>
      <stop offset="100%" stop-color="#06b6d4"/>
    </linearGradient>
  </defs>
  <rect width="100" height="100" rx="22" fill="url(#g)"/>
  <path d="M 30 40 C 25 38, 22 48, 25 56 C 20 60, 22 70, 30 72 C 32 80, 45 84, 50 80 L 50 32 C 45 28, 35 30, 30 40 Z" fill="#ffd1d1"/>
  <path d="M 70 40 C 75 38, 78 48, 75 56 C 80 60, 78 70, 70 72 C 68 80, 55 84, 50 80 L 50 32 C 55 28, 65 30, 70 40 Z" fill="#fcc"/>
  <circle cx="38" cy="55" r="10" fill="#fff" stroke="#1f2937" stroke-width="2.5"/>
  <circle cx="62" cy="55" r="10" fill="#fff" stroke="#1f2937" stroke-width="2.5"/>
  <circle cx="38" cy="55" r="3.5" fill="#1f2937"/>
  <circle cx="62" cy="55" r="3.5" fill="#1f2937"/>
  <path d="M 48 55 Q 50 53, 52 55" stroke="#1f2937" stroke-width="2" fill="none"/>
  <path d="M 42 72 Q 50 78, 58 72" stroke="#1f2937" stroke-width="2.5" fill="none" stroke-linecap="round"/>
</svg>
